PathFileType	4	(X/Y/Z)	pose_F01_0-76.trc
DataRate	CameraRate	NumFrames	NumMarkers	Units	OrigDataRate	OrigDataStartFrame	OrigNumFrames
30	30	7	21	m	30	63	76
Frame#	Time	CHip			RHip			RKnee			RAnkle			RBigToe			RSmallToe			RHeel			LHip			LKnee			LAnkle			LBigToe			LSmallToe			LHeel			Neck			Nose			RShoulder			RElbow			RWrist			LShoulder			LElbow			LWrist			
		X1	Y1	Z1	X2	Y2	Z2	X3	Y3	Z3	X4	Y4	Z4	X5	Y5	Z5	X6	Y6	Z6	X7	Y7	Z7	X8	Y8	Z8	X9	Y9	Z9	X10	Y10	Z10	X11	Y11	Z11	X12	Y12	Z12	X13	Y13	Z13	X14	Y14	Z14	X15	Y15	Z15	X16	Y16	Z16	X17	Y17	Z17	X18	Y18	Z18	X19	Y19	Z19	X20	Y20	Z20	X21	Y21	Z21	
63	2.1	-0.22546734877222274	1.8309316507568307	-0.30751881059327785	-0.24330422721625342	1.82625986891389	-0.31451467207230116																-0.20795361244159397	1.8331921357952161	-0.3093053629240219	-0.2156355583940776	1.735031003932713	-0.3817969892292955	-0.208282357781636	1.5851157456932816	-0.5464621006477501	-0.1928781326095453	1.5833612364396699	-0.5315549901396907	-0.18913842744403092	1.5918248455800341	-0.5316686431141493	-0.20265804162838272	1.572703508104972	-0.5463082002420341	-0.22756748351169437	1.9779875505560007	-0.3211913128284714	-0.2211566254663961	2.031100104359619	-0.42718385509070467	-0.24901116603809256	1.9783381431813682	-0.3318944265429621	-0.25788768953583435	1.8962834397316424	-0.3491412999604849	-0.2580695854120255	1.8294337433838932	-0.3592078479635768	-0.20893477437704347	1.9775719863961736	-0.3109448198869759	-0.19724180729678256	1.9396578196502268	-0.4202927332149188	-0.2117964013877854	1.987961571346805	-0.43706536026365767
64	2.1333333333333333	-0.2264318968179305	1.8276887811490663	-0.301359798599088	-0.24428130076533153	1.8225137227800543	-0.30818392605934686																-0.21010036777490462	1.831829222243652	-0.30689996051461815	-0.2156355583940776	1.735031003932713	-0.3817969892292955	-0.208282357781636	1.5851157456932816	-0.5464621006477501	-0.1928781326095453	1.5833612364396699	-0.5315549901396907	-0.18913842744403092	1.5918248455800341	-0.5316686431141493	-0.20265804162838272	1.572703508104972	-0.5463082002420341	-0.2295975553293037	1.979353696050432	-0.3198416987212813	-0.21831810579487823	2.0316030697789005	-0.4179711198223521	-0.24655147731121277	1.9777404375420091	-0.3087335272207992	-0.25801724229213013	1.8927557427070716	-0.3397629616957496	-0.2578233432139525	1.82996718959261	-0.3443945122553073	-0.21177146373397532	1.9818798672560425	-0.32832473319776145	-0.19728971560850198	1.9377841719929019	-0.42914119347949187	-0.21280540714366225	1.9894850512518727	-0.44070332061827194
65	2.1666666666666665	-0.2275148319494208	1.8299469029895414	-0.29571035948455415	-0.2432006544097283	1.8250778835475796	-0.28135906163616137																-0.21152101920059024	1.8362228631643467	-0.31023126220352437	-0.2156355583940776	1.735031003932713	-0.3817969892292955	-0.208282357781636	1.5851157456932816	-0.5464621006477501	-0.1928781326095453	1.5833612364396699	-0.5315549901396907	-0.18913842744403092	1.5918248455800341	-0.5316686431141493	-0.20265804162838272	1.572703508104972	-0.5463082002420341	-0.22959942869627817	1.9756851758941756	-0.3189721684099537	-0.22302544664772211	2.031200089187576	-0.40809871658593794	-0.24858144838000698	1.9731936525916867	-0.2914579833311356	-0.2555787257225934	1.8944114320126673	-0.31063659842081076	-0.2575771010158795	1.830500635801327	-0.32958117654703784	-0.21441650564111966	1.9792554975837469	-0.3516912761646304	-0.2012710127190399	1.932426646324853	-0.4504958433210161	-0.21810724403803775	1.9937781669514758	-0.4416215661083229
66	2.2	-0.227451321393283	1.832103701399979	-0.2964280352141356	-0.24165339072731684	1.8267418987288637	-0.26949658714572255																-0.2190731269200834	1.8371314574677928	-0.3346010116182364	-0.2156355583940776	1.735031003932713	-0.3817969892292955	-0.208282357781636	1.5851157456932816	-0.5464621006477501	-0.1928781326095453	1.5833612364396699	-0.5315549901396907	-0.18913842744403092	1.5918248455800341	-0.5316686431141493	-0.20265804162838272	1.572703508104972	-0.5463082002420341	-0.2278145273382441	1.975618064228317	-0.32108284621135685	-0.22859264869907933	2.0310978339153882	-0.40152564444989347	-0.24362197008204436	1.9748370337596086	-0.2697804750590875	-0.2569990975584279	1.9004465619661421	-0.30018689716147207	-0.2573308588178065	1.8310340820100437	-0.31476784083876835	-0.21476210814167732	1.9762421433502138	-0.3684149017699996	-0.20327740829518465	1.9282149266982829	-0.4480759441862933	-0.21631996554403168	1.992112597847378	-0.44374861547452865
67	2.2333333333333334	-0.23186902817932356	1.8312760793435277	-0.30072234078470134	-0.24316063264595245	1.8274500509600426	-0.27267701706265646																-0.22341450754581088	1.8368300298158917	-0.3393672365422362	-0.2156355583940776	1.735031003932713	-0.3817969892292955	-0.208282357781636	1.5851157456932816	-0.5464621006477501	-0.1928781326095453	1.5833612364396699	-0.5315549901396907	-0.18913842744403092	1.5918248455800341	-0.5316686431141493	-0.20265804162838272	1.572703508104972	-0.5463082002420341	-0.22952637158194342	1.9765778662051292	-0.31878527928482114	-0.22950372766343238	2.0319478748619586	-0.39607972971896915	-0.2460596037195097	1.9731721078655815	-0.26149231075972046	-0.25360231284083823	1.9012933506910545	-0.27335437557001374	-0.2570846166197335	1.8315675282187607	-0.29995450513049887	-0.2146315145851054	1.9775076638710398	-0.36846575569365847	-0.2035626244574348	1.925458351128834	-0.4475392222439611	-0.21630037844121996	1.9880625281341513	-0.4429121303188477
68	2.2666666666666666	-0.23729504602262325	1.8320965717002957	-0.303414675809323	-0.24593325897782367	1.8279107367832872	-0.25931653619055206																-0.22633113177294023	1.835055802039438	-0.3493286203820568	-0.2156355583940776	1.735031003932713	-0.3817969892292955	-0.208282357781636	1.5851157456932816	-0.5464621006477501	-0.1928781326095453	1.5833612364396699	-0.5315549901396907	-0.18913842744403092	1.5918248455800341	-0.5316686431141493	-0.20265804162838272	1.572703508104972	-0.5463082002420341	-0.2332720661198332	1.9753176518147813	-0.3145818490533778	-0.23511433000626905	2.031705243359538	-0.38951989741973153	-0.24968292396121114	1.9757522432088341	-0.2581690116932973	-0.25609513211834145	1.8997936628939083	-0.2506639782161364	-0.2645765649166622	1.830377474775578	-0.27664953564126316	-0.21564891683796078	1.976385401077446	-0.3711874354416989	-0.20847525126394242	1.9304555225168325	-0.45586938336041166	-0.21652026003416955	1.9896125696245472	-0.44375052908931545
69	2.3	-0.23707123910422084	1.8289884293545273	-0.2940753408340828	-0.24510297455583197	1.8253501510463854	-0.24088923982018676																-0.22935940624470805	1.8314078171991743	-0.3502688305997438	-0.2156355583940776	1.735031003932713	-0.3817969892292955	-0.208282357781636	1.5851157456932816	-0.5464621006477501	-0.1928781326095453	1.5833612364396699	-0.5315549901396907	-0.18913842744403092	1.5918248455800341	-0.5316686431141493	-0.20265804162838272	1.572703508104972	-0.5463082002420341	-0.23687118030341142	1.973655443173149	-0.3097989840346064	-0.23702463593222328	2.0316670682919433	-0.38729277025989156	-0.2521684202465193	1.9730009322646618	-0.2501318204107898	-0.25940332097544144	1.8948758049795733	-0.23093687260578666	-0.26599881141283965	1.825180388725475	-0.24965873174754716	-0.2187309173903156	1.9724869458938195	-0.37186722742216716	-0.21356501697920371	1.9319152575965859	-0.4641940189589573	-0.22033352093459438	1.9920613027056508	-0.4396355520424088
